<?xml version="1.0" ?><!DOCTYPE svg  PUBLIC '-//W3C//DTD SVG 1.1//EN'  'http://www.w3.org/Graphics/SVG/1.1/DTD/svg11.dtd'><svg enable-background="new 0 0 512 512" height="512px" id="Cat" version="1.1" viewBox="0 0 512 512" width="512px" xml:space="preserve" xmlns="http://www.w3.org/2000/svg" xmlns:xlink="http://www.w3.org/1999/xlink"><g><path d="M393.027,231.457v-53.38c0-42.449-34.535-76.983-76.984-76.983h-6v5.689c-8.957-3.657-18.744-5.689-29-5.689h-6v38.543   c-0.717-0.014-1.434-0.031-2.154-0.031c-28.449,0-55.438,10.227-78.049,29.573c-20.513,17.552-36.173,42.07-44.463,69.453h-40.709   v42.64h0.099v22.293c0,19.907,6.811,38.701,19.178,52.919c6.087,6.999,13.181,12.49,20.917,16.332v38.091l223.392-0.518v-32.083   l1.037-1.477c18.348-26.114,28.045-57.552,28.045-90.913C402.334,266.678,399.023,248.299,393.027,231.457z M322.043,127.71   v-14.342c0.256,0.023,0.508,0.063,0.762,0.089c32.664,3.395,58.223,31.073,58.223,64.62v27.518   c-6.471-11.093-14.238-21.138-23.061-29.853c-4.254-4.203-8.756-8.096-13.473-11.65c-7.033-5.297-14.547-9.836-22.451-13.518   V127.71z M287.043,113.368c8.199,0.755,15.961,3.042,23,6.566v25.823c-7.412-2.515-15.1-4.298-23-5.273V113.368z M121.766,251.026   h16.767c-1.929,8.458-8.432,15.192-16.767,17.438V251.026z M361.252,398.416l-199.392,0.463v-20.345h6.052   c1.713,0.261,3.438,0.467,5.18,0.58l0.186,0.266h187.973V398.416z M366.764,366.534H168.943   c-26.608-4.576-47.177-31.198-47.177-62.97v-22.828c14.967-2.606,26.741-14.62,28.976-29.71h8.648l1.191-4.448   c7.23-27.013,22.167-51.262,42.06-68.282c20.408-17.461,44.7-26.69,70.248-26.69c0.721,0,1.438,0.017,2.154,0.031   c4.053,0.084,8.057,0.403,12,0.947c7.936,1.095,15.629,3.096,23,5.914c4.105,1.57,8.109,3.395,12,5.454   c8.605,4.554,16.652,10.264,23.984,16.957c4.248,3.878,8.26,8.081,12,12.585c8.727,10.508,15.979,22.627,21.391,35.917   c1.59,3.903,3.018,7.906,4.279,12c4.293,13.936,6.637,28.912,6.637,44.505C390.334,315.362,382.189,343.137,366.764,366.534z"/><rect height="23" width="25.365" x="210.818" y="226.15"/><rect height="12" width="82.321" x="211.025" y="292.77"/><rect height="12" transform="matrix(-0.9821 -0.1885 0.1885 -0.9821 437.8797 699.1807)" width="80.967" x="211.702" y="322.769"/></g></svg>