<?xml version="1.0" encoding="utf-8"?>
<!-- Generator: Adobe Illustrator 23.0.6, SVG Export Plug-In . SVG Version: 6.00 Build 0)  -->
<svg version="1.1" xmlns="http://www.w3.org/2000/svg" xmlns:xlink="http://www.w3.org/1999/xlink" x="0px" y="0px"
	 viewBox="0 0 1600 1200" style="enable-background:new 0 0 1600 1200;" xml:space="preserve">
<style type="text/css">
	.st0{fill:url(#SVGID_1_);}
	.st1{fill:#B800B8;}
	.st2{fill:url(#SVGID_2_);}
	.st3{fill:url(#SVGID_3_);}
	.st4{opacity:0.7;}
	.st5{fill:url(#SVGID_4_);}
	.st6{fill:url(#SVGID_5_);}
	.st7{fill:url(#SVGID_6_);}
	.st8{fill:#FFFFFF;}
	.st9{fill:url(#SVGID_7_);}
	.st10{fill:url(#SVGID_8_);}
	.st11{fill:url(#SVGID_9_);}
	.st12{fill:url(#SVGID_10_);}
	.st13{fill:url(#SVGID_11_);}
	.st14{fill:url(#SVGID_12_);}
	.st15{fill:url(#SVGID_13_);}
	.st16{fill:url(#SVGID_14_);}
	.st17{fill:url(#SVGID_15_);}
	.st18{fill:url(#SVGID_16_);}
	.st19{fill:url(#SVGID_17_);}
	.st20{fill:url(#SVGID_18_);}
	.st21{fill:url(#SVGID_19_);}
	.st22{fill:url(#SVGID_20_);}
	.st23{opacity:0.5;fill:url(#SVGID_21_);}
	.st24{fill:url(#SVGID_22_);}
	.st25{fill:url(#SVGID_23_);}
	.st26{fill:url(#SVGID_24_);}
	.st27{fill:url(#SVGID_25_);}
	.st28{fill:url(#SVGID_26_);}
	.st29{fill:url(#SVGID_27_);}
	.st30{fill:url(#SVGID_28_);}
</style>
<g id="Layer_4">
</g>
<g id="Layer_3">
</g>
<g id="Layer_5">
	<g>
		<linearGradient id="SVGID_1_" gradientUnits="userSpaceOnUse" x1="1523.0206" y1="543.4383" x2="-147.1019" y2="748.8705">
			<stop  offset="0" style="stop-color:#7700BB"/>
			<stop  offset="1" style="stop-color:#00008B"/>
			<stop  offset="1" style="stop-color:#000000"/>
		</linearGradient>
		<path class="st0" d="M365,977.73c1.08-240.77,196.57-435.62,437.6-435.62s436.52,194.85,437.6,435.62h346.16
			c-1.08-431.94-351.56-781.77-783.76-781.77c-432.2,0-782.68,349.82-783.76,781.77H365z"/>
		<path class="st1" d="M1195.72,787.32c28.2,57.51,44.16,122.11,44.47,190.41h346.16c-0.38-152.21-44.15-294.22-119.59-414.32
			L1195.72,787.32z"/>
		<linearGradient id="SVGID_2_" gradientUnits="userSpaceOnUse" x1="826.9901" y1="432.2478" x2="795.1725" y2="1140.9224">
			<stop  offset="0" style="stop-color:#1DACFF"/>
			<stop  offset="0.1355" style="stop-color:#1CA9FB"/>
			<stop  offset="0.2739" style="stop-color:#1B9FEF"/>
			<stop  offset="0.4138" style="stop-color:#188EDA"/>
			<stop  offset="0.5546" style="stop-color:#1476BD"/>
			<stop  offset="0.6962" style="stop-color:#0F5898"/>
			<stop  offset="0.8385" style="stop-color:#08326B"/>
			<stop  offset="0.9788" style="stop-color:#010737"/>
			<stop  offset="1" style="stop-color:#00002E"/>
		</linearGradient>
		<path class="st2" d="M1255.28,979.06c-2.27-255.71-204.05-462.29-452.68-462.29c-248.63,0-450.41,206.58-452.68,462.29H1255.28z"
			/>
		<linearGradient id="SVGID_3_" gradientUnits="userSpaceOnUse" x1="802.5983" y1="980.9831" x2="802.5983" y2="526.5887">
			<stop  offset="0" style="stop-color:#27004F"/>
			<stop  offset="1" style="stop-color:#004C81"/>
		</linearGradient>
		<path class="st3" d="M1241.94,977.73c-2.21-242.19-198.04-437.84-439.34-437.84S365.46,735.54,363.26,977.73H1241.94z"/>
	</g>
	<g class="st4">
		<g>
			<g>
				<linearGradient id="SVGID_4_" gradientUnits="userSpaceOnUse" x1="1513.9215" y1="740.1981" x2="1513.9215" y2="3.5765">
					<stop  offset="0" style="stop-color:#00BAFF"/>
					<stop  offset="0.6096" style="stop-color:#FFFFFF"/>
				</linearGradient>
				<path class="st5" d="M1526.84,966.48h-26.88c0.42-5.27,0.77-11.67,1.06-16.97l26.86,1.23
					C1527.59,956.25,1527.28,961.02,1526.84,966.48z"/>
			</g>
			<g>
				<linearGradient id="SVGID_5_" gradientUnits="userSpaceOnUse" x1="805.1361" y1="730.4574" x2="805.1361" y2="-40.4459">
					<stop  offset="0" style="stop-color:#00BAFF"/>
					<stop  offset="0.6096" style="stop-color:#FFFFFF"/>
				</linearGradient>
				<path class="st6" d="M1501.4,893.33c-0.42-10.78-1.15-21.66-2.14-32.34l26.79-2.15c1.04,11.09,1.78,22.39,2.23,33.58
					L1501.4,893.33z M108.87,892.81L82,891.88c0.45-11.17,1.21-22.47,2.25-33.58l26.79,2.17
					C110.03,871.17,109.3,882.05,108.87,892.81z M1491.43,805.33c-2-10.59-4.31-21.28-6.88-31.76l26.22-5.53
					c2.67,10.89,5.08,21.99,7.15,32.99L1491.43,805.33z M118.92,799.56l-26.49,0.93c2.09-11,4.5-22.1,7.18-32.98l26.22,5.55
					C123.25,783.53,120.92,788.97,118.92,799.56z M1468.55,719.43c-3.56-10.26-7.45-20.57-11.56-30.65l25.15-8.82
					c4.27,10.47,8.31,21.18,12.01,31.84L1468.55,719.43z M141.87,718.93l-25.59-7.65c3.7-10.63,7.74-21.32,12.01-31.76l25.14,8.84
					C149.32,698.41,145.43,708.7,141.87,718.93z M1433.09,637.18c-5.04-9.69-10.42-19.4-15.99-28.86l23.6-11.95
					c5.79,9.82,11.37,19.91,16.61,29.97L1433.09,637.18z M177.35,636.82l-24.22-10.84c5.23-10.03,10.8-20.09,16.58-29.88l23.6,11.96
					C187.75,617.48,182.38,627.16,177.35,636.82z M1385.78,560.25c-6.43-8.97-13.19-17.9-20.09-26.54l21.62-14.83
					c7.17,8.98,14.19,18.25,20.86,27.57L1385.78,560.25z M224.64,560.01l-22.39-13.81c6.67-9.29,13.68-18.54,20.84-27.52
					l21.62,14.83C237.81,542.15,231.06,551.07,224.64,560.01z M1327.6,490.04c-7.68-8.07-15.69-16.06-23.79-23.75l19.25-17.41
					c8.41,7.99,16.72,16.29,24.7,24.66L1327.6,490.04z M282.81,489.87l-20.15-16.51c7.97-8.36,16.28-16.66,24.7-24.65l19.24,17.42
					C298.49,473.83,290.49,481.81,282.81,489.87z M1259.68,427.83c-8.78-7.01-17.88-13.92-27.03-20.52l16.52-19.67
					c9.51,6.86,18.95,14.03,28.07,21.31L1259.68,427.83z M350.75,427.69l-17.55-18.89c9.13-7.29,18.59-14.46,28.1-21.32l16.51,19.68
					C368.66,413.76,359.55,420.67,350.75,427.69z M1183.28,374.78c-9.73-5.84-19.75-11.53-29.77-16.9l13.46-21.58
					c10.41,5.58,20.81,11.49,30.92,17.56L1183.28,374.78z M427.21,374.64L412.6,353.7c10.13-6.07,20.56-11.99,31-17.58l13.45,21.59
					C447,363.09,436.96,368.79,427.21,374.64z M1099.82,331.91c-10.5-4.55-21.25-8.91-31.96-12.95l10.15-23.09
					c11.12,4.2,22.29,8.73,33.2,13.45L1099.82,331.91z M510.78,331.76l-11.37-22.59c10.94-4.73,22.16-9.27,33.33-13.48l10.13,23.09
					C532.11,322.83,521.31,327.2,510.78,331.76z M1010.87,300.08c-11.08-3.17-22.39-6.12-33.64-8.77l6.62-24.16
					c11.68,2.75,23.44,5.82,34.95,9.11L1010.87,300.08z M599.94,299.92l-7.91-23.83c11.52-3.29,23.28-6.34,34.96-9.08l6.6,24.17
					C622.34,293.82,611.02,296.76,599.94,299.92z M917.94,279.88c-11.43-1.73-23.08-3.21-34.62-4.4l2.98-24.78
					c11.98,1.24,24.08,2.78,35.96,4.57L917.94,279.88z M692.88,279.8l-4.3-24.61c11.88-1.78,23.98-3.31,35.96-4.54l2.96,24.78
					C715.96,276.61,704.32,278.08,692.88,279.8z M822.9,271.67c-11.61-0.27-23.41-0.27-34.96-0.01l-0.65-24.92
					c11.99-0.27,24.24-0.27,36.29,0.01L822.9,271.67z"/>
			</g>
			<g>
				<linearGradient id="SVGID_6_" gradientUnits="userSpaceOnUse" x1="96.0562" y1="740.199" x2="96.0562" y2="3.5803">
					<stop  offset="0" style="stop-color:#00BAFF"/>
					<stop  offset="0.6096" style="stop-color:#FFFFFF"/>
				</linearGradient>
				<path class="st7" d="M82.92,966.48c-0.44-5.49-0.26-10.26-0.55-15.74l26.86-1.23c0.28,5.28,0.09,11.68,0.51,16.97H82.92z"/>
			</g>
		</g>
	</g>
</g>
<g id="Layer_2">
	<circle class="st8" cx="1342.25" cy="400.96" r="3.03"/>
	<circle class="st8" cx="1431.84" cy="349.71" r="3.03"/>
	<circle class="st8" cx="108.61" cy="1480.57" r="3.03"/>
	<g>
		<g>
			<linearGradient id="SVGID_7_" gradientUnits="userSpaceOnUse" x1="1514.8755" y1="350.3315" x2="721.3834" y2="830.0341">
				<stop  offset="0" style="stop-color:#1DACFF"/>
				<stop  offset="0.1355" style="stop-color:#1CA9FB"/>
				<stop  offset="0.2739" style="stop-color:#1B9FEF"/>
				<stop  offset="0.4138" style="stop-color:#188EDA"/>
				<stop  offset="0.5546" style="stop-color:#1476BD"/>
				<stop  offset="0.6962" style="stop-color:#0F5898"/>
				<stop  offset="0.8385" style="stop-color:#08326B"/>
				<stop  offset="0.9788" style="stop-color:#010737"/>
				<stop  offset="1" style="stop-color:#00002E"/>
			</linearGradient>
			<polyline class="st9" points="727.42,723.71 1404.61,382.81 805.21,882.03 			"/>
			<linearGradient id="SVGID_8_" gradientUnits="userSpaceOnUse" x1="1431.0344" y1="356.2226" x2="976.5825" y2="630.3374">
				<stop  offset="0" style="stop-color:#1DACFF"/>
				<stop  offset="0.1355" style="stop-color:#1CA9FB"/>
				<stop  offset="0.2739" style="stop-color:#1B9FEF"/>
				<stop  offset="0.4138" style="stop-color:#188EDA"/>
				<stop  offset="0.5546" style="stop-color:#1476BD"/>
				<stop  offset="0.6962" style="stop-color:#0F5898"/>
				<stop  offset="0.8385" style="stop-color:#08326B"/>
				<stop  offset="0.9788" style="stop-color:#010737"/>
				<stop  offset="1" style="stop-color:#00002E"/>
			</linearGradient>
			<polygon class="st10" points="1095.33,584.54 1404.61,382.81 1031.62,571.31 			"/>
		</g>
		<g>
			<g>
				<linearGradient id="SVGID_9_" gradientUnits="userSpaceOnUse" x1="95.8403" y1="1025.9667" x2="522.0793" y2="1025.9667">
					<stop  offset="0" style="stop-color:#88AEDA"/>
					<stop  offset="0.0417" style="stop-color:#8EADD4"/>
					<stop  offset="0.496" style="stop-color:#CBA895"/>
					<stop  offset="0.8277" style="stop-color:#F1A56D"/>
					<stop  offset="1" style="stop-color:#FFA45E"/>
				</linearGradient>
				<path class="st11" d="M457.45,1085.55c-31.46,23.38-105.92,44.84-105.92,44.84s5.96-3.41,15.76-8.25
					c9.8-4.84,17.91-15.11,17.91-15.11s-20.01,12.2-47.8,21.58c-27.79,9.38-64.95,16.22-64.95,16.22s7.55-3.67,20.8-12.33
					c13.25-8.66,36.05-23.75,36.05-23.75s-56.87,31.15-143.8,37.13c-34.02,2.34-89.66,14.52-89.66,14.52s26.88-23.18,39.68-36.55
					c20.31-21.22,43.94-55.33,62.46-76.88c27.57-32.09,84.18-88.54,84.18-88.54s0,0-11.39,5.1c-11.39,5.1-25.16,10.59-25.16,10.59
					s56.92-54.27,99.3-70.63c47.73-18.44,111.46-10.03,111.46-10.03s5.6,27.25,26.44,62.51c21.54,36.46,39.27,51.29,39.27,51.29
					S505.65,1049.73,457.45,1085.55z"/>
				<linearGradient id="SVGID_10_" gradientUnits="userSpaceOnUse" x1="193.2693" y1="1009.2544" x2="513.5998" y2="1009.2544">
					<stop  offset="0" style="stop-color:#88CFDA"/>
					<stop  offset="0.0417" style="stop-color:#8ED0D4"/>
					<stop  offset="0.496" style="stop-color:#CBD995"/>
					<stop  offset="0.8277" style="stop-color:#F1DF6D"/>
					<stop  offset="1" style="stop-color:#FFE15E"/>
				</linearGradient>
				<path class="st12" d="M465.03,1054.04c-23.64,17.57-79.6,33.7-79.6,33.7s4.48-2.56,11.85-6.2c7.36-3.64,13.46-11.36,13.46-11.36
					s-15.04,9.17-35.92,16.22c-20.89,7.05-48.82,12.19-48.82,12.19s5.67-2.76,15.63-9.26c9.96-6.51,27.09-17.85,27.09-17.85
					s-42.74,23.41-108.07,27.9c-25.57,1.76-67.38,10.91-67.38,10.91s20.2-17.42,29.82-27.47c15.26-15.95,33.02-41.58,46.94-57.78
					c20.72-24.12,63.27-66.54,63.27-66.54s0,0-8.56,3.83c-8.56,3.83-18.9,7.96-18.9,7.96s42.78-40.78,74.62-53.08
					c35.87-13.86,83.76-7.53,83.76-7.53s4.21,20.48,19.87,46.98c16.19,27.4,29.51,38.55,29.51,38.55S501.25,1027.11,465.03,1054.04z
					"/>
			</g>
			<g>
				<linearGradient id="SVGID_11_" gradientUnits="userSpaceOnUse" x1="838.4863" y1="905.4001" x2="455.0254" y2="405.8915">
					<stop  offset="0" style="stop-color:#A1BAFF"/>
					<stop  offset="0.4885" style="stop-color:#FFFFFF"/>
				</linearGradient>
				<path class="st13" d="M500.85,832.15c3.61-5.41,103.98-113,226-176.11c122.02-63.11,177.32-68.52,177.32-68.52
					s30.65,21.64,61.31,78.14c30.65,56.5,39.67,79.34,37.27,86.56c-2.4,7.21-121.42,135.84-251.85,189.34s-145.46,56.5-145.46,56.5
					s-16.23-1.8-34.86-30.05c-18.63-28.25-61.91-98.58-66.72-114.2C499.05,838.16,500.85,832.15,500.85,832.15z"/>
				<linearGradient id="SVGID_12_" gradientUnits="userSpaceOnUse" x1="1073.0419" y1="697.3258" x2="999.0903" y2="576.6672">
					<stop  offset="0" style="stop-color:#3D00BA"/>
					<stop  offset="0.7452" style="stop-color:#CE00FF"/>
				</linearGradient>
				<path class="st14" d="M1101.32,580.9c-7.21-10.22-16.83-12.02-75.13-11.42c-58.3,0.6-119.01,19.84-119.01,19.84l0.69,1.12
					c9.03,7.56,33.31,30.43,57.61,75.21c23.07,42.52,33.88,65.98,36.8,78.06l2.27,3.69c0,0,0,0,10.22-9.62
					c10.22-9.62,52.29-71.53,67.92-100.38S1108.53,591.12,1101.32,580.9z"/>
				<linearGradient id="SVGID_13_" gradientUnits="userSpaceOnUse" x1="543.5266" y1="1030.4982" x2="788.1617" y2="1030.4982">
					<stop  offset="0" style="stop-color:#3D00BA"/>
					<stop  offset="0.7452" style="stop-color:#CE00FF"/>
				</linearGradient>
				<path class="st15" d="M610.25,996.24l-66.72,140.65c0,0,65.52-27.05,141.85-77.54c76.34-50.49,82.35-58.3,82.35-58.3
					l20.44-76.94C788.16,924.11,665.54,980.61,610.25,996.24z"/>
				<linearGradient id="SVGID_14_" gradientUnits="userSpaceOnUse" x1="599.1534" y1="797.2938" x2="452.4923" y2="739.591">
					<stop  offset="0" style="stop-color:#3D00BA"/>
					<stop  offset="0.7452" style="stop-color:#CE00FF"/>
				</linearGradient>
				<path class="st16" d="M650.52,702.91l-70.33-14.43c0,0-61.91,25.85-113.6,59.51c-51.69,33.66-102.18,71.53-102.18,71.53
					l141.25,7.21C505.66,826.74,605.44,724.55,650.52,702.91z"/>
				<linearGradient id="SVGID_15_" gradientUnits="userSpaceOnUse" x1="575.8492" y1="1012.5344" x2="474.8747" y2="859.2704">
					<stop  offset="0" style="stop-color:#270036"/>
					<stop  offset="0.4379" style="stop-color:#4F008B"/>
					<stop  offset="1" style="stop-color:#4C24B1"/>
				</linearGradient>
				<path class="st17" d="M570.57,967.99c-18.63-28.25-61.91-98.58-66.72-114.2c-1.31-4.25-2.11-7.76-2.61-10.66l-36.46,26.89
					c0,0-2.4,26.45,30.05,75.73c32.46,49.29,49.29,66.12,57.1,65.52c7.81-0.6,41.47-18.03,41.47-18.03l-0.69-1.13
					C586.61,987.82,578.83,980.51,570.57,967.99z"/>
				<linearGradient id="SVGID_16_" gradientUnits="userSpaceOnUse" x1="457.2505" y1="886.8208" x2="529.3753" y2="1013.0397">
					<stop  offset="0" style="stop-color:#7633FF"/>
					<stop  offset="0.1585" style="stop-color:#7137FF"/>
					<stop  offset="0.3535" style="stop-color:#6243FF"/>
					<stop  offset="0.5676" style="stop-color:#4957FF"/>
					<stop  offset="0.7937" style="stop-color:#2672FF"/>
					<stop  offset="1" style="stop-color:#0090FF"/>
				</linearGradient>
				<path class="st18" d="M467.19,885.64l-10.82,7.81c0,0-1.2,16.83,23.44,57.7c24.64,40.87,39.67,55.9,46.28,56.5
					c6.61,0.6,11.42-5.41,11.42-5.41S479.81,937.93,467.19,885.64z"/>
				<linearGradient id="SVGID_17_" gradientUnits="userSpaceOnUse" x1="721.0576" y1="787.22" x2="407.3144" y2="954.9094">
					<stop  offset="0" style="stop-color:#7633FF"/>
					<stop  offset="0.1316" style="stop-color:#6342FF"/>
					<stop  offset="0.5337" style="stop-color:#2E6CFF"/>
					<stop  offset="0.8353" style="stop-color:#0D86FF"/>
					<stop  offset="1" style="stop-color:#0090FF"/>
				</linearGradient>
				<path class="st19" d="M694.39,796.68l-54.1,18.63c0,0-83.87,46.53-111.2,63.11c-34.28,20.8-134.64,87.16-134.64,87.16l4.21,9.02
					l248.84-148.46l54.7-21.04L694.39,796.68z"/>
				<linearGradient id="SVGID_18_" gradientUnits="userSpaceOnUse" x1="398.6689" y1="889.848" x2="702.2089" y2="889.848">
					<stop  offset="0" style="stop-color:#3D00BA"/>
					<stop  offset="0.7452" style="stop-color:#CE00FF"/>
				</linearGradient>
				<path class="st20" d="M398.67,974.6l137.04-63.11c0,0,52.63-30.1,69.72-40.87c24.71-15.59,96.77-65.52,96.77-65.52l-57.1,21.64
					L398.67,974.6z"/>
			</g>
		</g>
		<g>
			<path d="M940.83,287.58l13.22-5.41c0,0,3.34,1.53,6.61,9.02c4.21,9.62,4.81,16.23,4.81,16.23l-13.22,7.21
				C952.25,314.62,945.64,296.59,940.83,287.58z"/>
			<linearGradient id="SVGID_19_" gradientUnits="userSpaceOnUse" x1="767.1243" y1="346.4802" x2="954.9142" y2="346.4802">
				<stop  offset="0" style="stop-color:#7633FF"/>
				<stop  offset="0.1585" style="stop-color:#7137FF"/>
				<stop  offset="0.3535" style="stop-color:#6243FF"/>
				<stop  offset="0.5676" style="stop-color:#4957FF"/>
				<stop  offset="0.7937" style="stop-color:#2672FF"/>
				<stop  offset="1" style="stop-color:#0090FF"/>
			</linearGradient>
			<path class="st21" d="M819.42,406.59l135.24-81.75c0,0,1.6-12.82-3.21-24.04c-4.81-11.22-10.42-14.43-10.42-14.43l-173.91,78.74"
				/>
			<linearGradient id="SVGID_20_" gradientUnits="userSpaceOnUse" x1="740.387" y1="646.583" x2="834.1536" y2="341.2401">
				<stop  offset="0" style="stop-color:#7633FF"/>
				<stop  offset="0.1106" style="stop-color:#6640FF"/>
				<stop  offset="0.5243" style="stop-color:#2F6BFF"/>
				<stop  offset="0.8331" style="stop-color:#0D86FF"/>
				<stop  offset="1" style="stop-color:#0090FF"/>
			</linearGradient>
			<path class="st22" d="M758.31,364.71c0,0-26.05,28.65-32.06,59.91c-6.01,31.26-5.41,83.55-7.21,100.98
				c-1.8,17.43-10.82,49.89-16.23,64.92c-5.41,15.03-7.21,36.06-7.21,36.06s37.87,4.21,79.94-0.6s57.1-10.22,57.1-10.22
				s-2.41-49.29-6.81-65.32c-4.41-16.03-5.61-21.64-5.61-21.64s1.6-6.01,5.61-16.83s24.04-49.29,20.84-64.11
				c-3.21-14.83-11.22-36.47-18.03-43.68s-9.62-8.41-9.62-8.41s-15.63-22.44-26.45-32.86c-10.82-10.42-24.04-9.22-24.04-9.22
				L758.31,364.71z"/>
			<linearGradient id="SVGID_21_" gradientUnits="userSpaceOnUse" x1="768.3499" y1="491.1714" x2="825.8284" y2="491.1714">
				<stop  offset="0" style="stop-color:#7700BB"/>
				<stop  offset="1" style="stop-color:#00008B"/>
				<stop  offset="1" style="stop-color:#000000"/>
			</linearGradient>
			<path class="st23" d="M768.35,460.32c0,0,7.01,20.44,18.63,34.06c11.62,13.62,35.46,27.65,35.46,27.65l3.38-10.05l-55.88-51.66"
				/>
			<linearGradient id="SVGID_22_" gradientUnits="userSpaceOnUse" x1="758.444" y1="370.8071" x2="813.3867" y2="370.8071">
				<stop  offset="0" style="stop-color:#7633FF"/>
				<stop  offset="0.1585" style="stop-color:#7137FF"/>
				<stop  offset="0.3535" style="stop-color:#6243FF"/>
				<stop  offset="0.5676" style="stop-color:#4957FF"/>
				<stop  offset="0.7937" style="stop-color:#2672FF"/>
				<stop  offset="1" style="stop-color:#0090FF"/>
			</linearGradient>
			<path class="st24" d="M813.39,387.96c-5.53-7.49-14.1-18.59-20.82-25.05c-10.82-10.42-24.04-9.22-24.04-9.22l-10.08,10.87
				c7.23,4.43,25.1,7.73,36.53,14.37C801.92,382.97,808.27,385.9,813.39,387.96z"/>
			<linearGradient id="SVGID_23_" gradientUnits="userSpaceOnUse" x1="764.119" y1="546.4361" x2="818.2152" y2="546.4361">
				<stop  offset="0" style="stop-color:#7700BB"/>
				<stop  offset="1" style="stop-color:#00008B"/>
				<stop  offset="1" style="stop-color:#000000"/>
			</linearGradient>
			<path class="st25" d="M765.32,545.63c0,0,12.82-0.4,31.26-4.81c18.43-4.41,21.64-7.21,21.64-7.21l-4.01,16.43
				c0,0-9.22,6.41-22.44,7.61c-13.22,1.2-27.65,1.6-27.65,1.6L765.32,545.63z"/>
			<path d="M707.62,627.38c0,0,3.61,19.23,16.03,26.45c12.42,7.21,24.44,12.82,24.44,12.82l56.9,43.28l-90.16,36.47
				c0,0,11.62,27.25,21.24,40.87c9.62,13.63,16.43,20.04,16.43,18.84s56.9-27.65,87.36-39.27c30.45-11.62,45.68-18.43,51.29-30.05
				c5.61-11.62-6.41-24.84-12.02-35.26c-5.61-10.42-43.68-64.11-50.49-71.73c-6.81-7.61-12.42-10.02-12.42-10.02
				S753.7,631.79,707.62,627.38z"/>
			<linearGradient id="SVGID_24_" gradientUnits="userSpaceOnUse" x1="661.9372" y1="803.4986" x2="729.257" y2="803.4986">
				<stop  offset="0" style="stop-color:#270036"/>
				<stop  offset="0.5936" style="stop-color:#4F008B"/>
				<stop  offset="1" style="stop-color:#4C24B1"/>
			</linearGradient>
			<path class="st26" d="M714.83,746.39l-24.44-0.4l-28.45,12.82l12.02,28.05l5.61-3.61c0,0,2.81,26.85,10.82,44.88
				c8.01,18.03,25.64,33.26,29.65,32.86c4.01-0.4,7.21-6.81,7.21-6.81s-14.02-23.64-11.22-36.87c2.8-13.22,8.82-34.46,8.82-34.46
				l4.41-4.81C729.26,778.05,715.63,753.21,714.83,746.39z"/>
			<path class="st8" d="M714.83,746.39l-18.46-0.3c0.93,4.55,2.6,11.56,4.43,13.93c2.52,3.24,17.28,8.41,24.92,21.88l3.53-3.85
				C729.26,778.05,715.63,753.21,714.83,746.39z"/>
			<path d="M720.04,861c1.09-0.11,2.11-0.66,3.03-1.41c-7.68-5.04-15.76-14.46-23.46-24.64c-11.22-14.83-12.02-45.28-13.62-51.69
				c-1.33-5.33-9.6-23.7-12.34-29.72l-11.7,5.28l12.02,28.05l5.61-3.61c0,0,2.81,26.85,10.82,44.88
				C698.4,846.17,716.03,861.4,720.04,861z"/>
			<path d="M785.46,354.9c0,0-1.2-10.22-1.8-14.43s1.8-25.85,13.52-34.56c11.72-8.72,32.16-9.62,44.48-3.61
				c12.32,6.01,23.44,12.92,25.85,17.13c2.4,4.21,3.61,12.02,2.7,14.43c-0.9,2.4-2.4,2.4-2.4,2.4l-12.62-10.52
				c0,0-9.32,9.62-9.62,12.02c-0.3,2.4-3.31,15.93-3.31,15.93s-5.71-0.3-5.71-1.2c0-0.9-5.71-16.83-9.92-16.23
				c-4.21,0.6-9.82-0.6-12.32,9.02c-0.72,2.76-2.1,9.62-2.1,9.62l-18.63,7.51L785.46,354.9z"/>
			<linearGradient id="SVGID_25_" gradientUnits="userSpaceOnUse" x1="793.5714" y1="362.8616" x2="866.5015" y2="362.8616">
				<stop  offset="0" style="stop-color:#A1BAFF"/>
				<stop  offset="0.4885" style="stop-color:#FFFFFF"/>
			</linearGradient>
			<path class="st27" d="M855.18,325.74c0,0-9.32,9.62-9.62,12.02c-0.3,2.4-3.31,15.93-3.31,15.93s-5.71-0.3-5.71-1.2
				c0-0.9-5.71-16.83-9.92-16.23c-4.21,0.6-9.82-0.6-12.32,9.02c-0.72,2.76-2.1,9.62-2.1,9.62l-18.63,7.51l24.64,33.16l4.81-2
				c0,0,19.63,6.61,21.44,6.41c1.8-0.2,3.81-8.62,3.81-9.42c0-0.8,3.41-1.6,4.81-2c1.4-0.4-0.4-3.41-0.4-3.41l3.41-0.6l1.2-7.21
				c0,0,2.6,1.2,3.41,1.2c0.8,0,4.01-1.4,4.01-1.4l-3.21-22.84l3.61-3.41l1.4-15.23l-0.36-0.79L855.18,325.74z"/>
			<linearGradient id="SVGID_26_" gradientUnits="userSpaceOnUse" x1="768.3187" y1="491.0656" x2="957.6633" y2="491.0656">
				<stop  offset="0" style="stop-color:#7633FF"/>
				<stop  offset="0.1585" style="stop-color:#7137FF"/>
				<stop  offset="0.3535" style="stop-color:#6243FF"/>
				<stop  offset="0.5676" style="stop-color:#4957FF"/>
				<stop  offset="0.7937" style="stop-color:#2672FF"/>
				<stop  offset="1" style="stop-color:#0090FF"/>
			</linearGradient>
			<path class="st28" d="M768.53,458.28c0,0,5.21,19.23,52.09,50.89c46.88,31.66,78.14,50.49,88.96,56.5
				c10.82,6.01,27.25,20.84,27.25,20.84s9.22-10.42,14.43-20.04c5.21-9.62,6.41-14.43,6.41-14.43s-57.7-39.67-74.93-53.3
				c-17.23-13.62-40.47-41.27-42.88-46.88c-2.4-5.61-2.81-42.88-20.04-52.49c-17.23-9.62-36.46,0-44.88,20.44
				C766.52,440.25,768.53,458.28,768.53,458.28z"/>
			<path d="M942.34,578.79l14.43,6.01c0,0,5.71-5.11,8.72-13.82c3.01-8.72,4.21-12.62,4.21-12.62l-12.02-6.31
				C957.66,552.05,947.75,574.29,942.34,578.79z"/>
			<linearGradient id="SVGID_27_" gradientUnits="userSpaceOnUse" x1="961.5703" y1="570.9796" x2="1034.2997" y2="570.9796">
				<stop  offset="0" style="stop-color:#A1BAFF"/>
				<stop  offset="0.4885" style="stop-color:#FFFFFF"/>
			</linearGradient>
			<path class="st29" d="M969.68,560.76c0,0,20.44-2.4,25.55-2.4c5.11,0,15.03,3.01,23.74,6.91c8.72,3.91,15.33,9.92,15.33,11.42
				c0,1.5-1.5,3.91-6.31,3.01c-4.81-0.9-24.34-5.11-27.65-4.81c-3.31,0.3-19.23,8.72-24.34,8.72S961.57,580,961.57,580
				S969.68,565.27,969.68,560.76z"/>
			<linearGradient id="SVGID_28_" gradientUnits="userSpaceOnUse" x1="954.0569" y1="278.1447" x2="1016.2114" y2="278.1447">
				<stop  offset="0" style="stop-color:#A1BAFF"/>
				<stop  offset="0.4885" style="stop-color:#FFFFFF"/>
			</linearGradient>
			<path class="st30" d="M954.06,282.17c0,0,9.62-4.61,14.83-7.41c5.21-2.81,16.83-8.82,25.65-12.42
				c8.82-3.61,20.44-10.02,21.64-6.81s-22.84,17.23-22.84,17.23s8.01,9.62,8.01,11.22s-8.41,15.63-8.41,15.63s-6.59,2.39-8.82,2
				c-2.22-0.38-7.61-4.81-7.61-4.81l-12.02,3.61C964.48,300.4,958.06,285.57,954.06,282.17z"/>
		</g>
	</g>
</g>
</svg>
